<?xml version="1.0" encoding="UTF-8" standalone="no"?>
<svg
   xmlns:dc="http://purl.org/dc/elements/1.1/"
   xmlns:cc="http://creativecommons.org/ns#"
   xmlns:rdf="http://www.w3.org/1999/02/22-rdf-syntax-ns#"
   xmlns:svg="http://www.w3.org/2000/svg"
   xmlns="http://www.w3.org/2000/svg"
   version="1.1"
   id="svg2"
   viewBox="340 456 80 90"
   height="55pt"
   width="55pt">
  <defs
     id="defs4" />
  <metadata
     id="metadata7">
    <rdf:RDF>
      <cc:Work
         rdf:about="">
        <dc:format>image/svg+xml</dc:format>
        <dc:type
           rdf:resource="http://purl.org/dc/dcmitype/StillImage" />
        <dc:title></dc:title>
      </cc:Work>
    </rdf:RDF>
  </metadata>
  <g
     id="layer1">
    <g
       id="g3451">
      <g
         transform="matrix(0.18268042,0,0,0.18268042,287.86635,452.34845)"
         id="g4352"
         style="opacity:1;stroke-width:7;stroke-miterlimit:4;stroke-dasharray:none">
        <path
           id="path4195"
           d="m 514.34126,114.73544 -120.83128,61.42139 120.9102,69.28288 120.76393,-69.12663 z"
           style="opacity:1;fill:#da5858;fill-opacity:1;stroke:#ffffff;stroke-width:10;stroke-linecap:round;stroke-linejoin:round;stroke-miterlimit:4;stroke-dasharray:none;stroke-opacity:1" />
        <path
           id="path4193"
           d="m 514.32548,385.88248 114.31843,-73.02922 6.5402,-136.54018 -89.97644,51.50353 -30.78749,17.6231 -0.0256,38.01619 z"
           style="opacity:1;fill:#f29898;fill-opacity:1;stroke:#ffffff;stroke-width:10;stroke-linecap:round;stroke-linejoin:round;stroke-miterlimit:4;stroke-dasharray:none;stroke-opacity:1" />
        <path
           id="path4191"
           d="m 399.9257,312.8674 114.39978,73.01508 0.0947,-140.44277 -120.9102,-69.28288 z"
           style="opacity:1;fill:#881b1b;fill-opacity:1;stroke:#ffffff;stroke-width:10;stroke-linecap:round;stroke-linejoin:round;stroke-miterlimit:4;stroke-dasharray:none;stroke-opacity:1" />
      </g>
      <g
         id="g4197"
         style="opacity:1;fill:#7c7c7c;fill-opacity:1;stroke:#ffffff;stroke-opacity:1"
         transform="matrix(0.18268042,0,0,0.18268042,201.873,452.34845)">
        <path
           id="path3344"
           d="m 791.80247,358.55223 78.875,-45.8125 3.69015,-2.0361 c -1.66842,-2.85687 -4.2127,-7.19968 -4.71373,-20.12452 l -4.12933,-89.40023 c -0.64086,-14.98155 3.01144,-19.1671 4.39088,-21.90053 l -5.54044,-2.98759 -91.60714,-52.85714 c -5.625,8.69048 -8.21428,18.09524 -6.42857,40.26786 l 14.01785,160.35714 c 1.85082,21.14073 9.96434,31.66017 11.44533,34.49361 z"
           style="opacity:1;fill:#164074;fill-opacity:1;stroke:#ffffff;stroke-width:10;stroke-linecap:round;stroke-linejoin:round;stroke-miterlimit:4;stroke-dasharray:none;stroke-opacity:1" />
        <path
           id="path4460"
           d="m 947.17286,477.48753 c 19.88738,13.6118 25.89779,14.6725 37.65344,14.8493 l 0.27315,-106.42275 0.0155,-6.0465 c -6.13203,0 -12.07792,-1.94836 -20.79545,-7.34219 l -74.98206,-47.87221 c -11.93567,-7.76836 -13.02658,-11.17014 -14.96982,-13.94955 l -3.69017,2.0361 -78.875,45.8125 c 3.01213,5.76097 7.27974,13.97967 23.875,26.875 z"
           style="opacity:1;fill:#164074;fill-opacity:1;stroke:#ffffff;stroke-width:10;stroke-linecap:round;stroke-linejoin:round;stroke-miterlimit:4;stroke-dasharray:none;stroke-opacity:1" />
        <path
           id="path4146"
           d="m 772.76786,123.43362 91.60714,52.85714 5.54044,2.98759 c 1.14119,-1.28218 3.38886,-7.20775 16.13986,-14.04599 l 79.22523,-40.41013 c 9.48274,-4.6272 16.09927,-5.04231 19.60895,-5.04231 l 0.13557,-5.02869 0.0631,-91.150497 C 973.0014,22.61859 963.90796,24.295913 949.6245,30.893822 L 804.33393,98.08371 c -21.57551,10.1221 -26.93691,16.54542 -31.56607,25.34991 z"
           style="opacity:1;fill:#6793cb;fill-opacity:1;stroke:#ffffff;stroke-width:10;stroke-linecap:round;stroke-linejoin:round;stroke-miterlimit:4;stroke-dasharray:none;stroke-opacity:1" />
        <path
           style="opacity:1;fill:#acc9ee;fill-opacity:1;stroke:#ffffff;stroke-width:10;stroke-linecap:round;stroke-linejoin:round;stroke-miterlimit:4;stroke-dasharray:none;stroke-opacity:1"
           d="m 1178.4274,358.55223 -78.875,-45.8125 -3.6901,-2.0361 c 1.6684,-2.85687 4.2127,-7.19968 4.7137,-20.12452 l 4.1293,-89.40023 c 0.6409,-14.98155 -3.0114,-19.1671 -4.3908,-21.90053 l 5.5404,-2.98759 91.6071,-52.85714 c 5.625,8.69048 8.2143,18.09524 6.4286,40.26786 l -14.0178,160.35714 c -1.8509,21.14073 -9.9644,31.66017 -11.4454,34.49361 z"
           id="path4171" />
        <path
           style="opacity:1;fill:#acc9ee;fill-opacity:1;stroke:#ffffff;stroke-width:10;stroke-linecap:round;stroke-linejoin:round;stroke-miterlimit:4;stroke-dasharray:none;stroke-opacity:1"
           d="m 1023.057,477.48753 c -19.8873,13.6118 -25.89775,14.6725 -37.6534,14.8493 l -0.27315,-106.42275 -0.0155,-6.0465 c 6.13203,0 12.07792,-1.94836 20.79545,-7.34219 l 74.9821,-47.87221 c 11.9356,-7.76836 13.0265,-11.17014 14.9698,-13.94955 l 3.6902,2.0361 78.875,45.8125 c -3.0122,5.76097 -7.2798,13.97967 -23.875,26.875 z"
           id="path4173" />
        <path
           style="opacity:1;fill:#6793cb;fill-opacity:1;stroke:#ffffff;stroke-width:10;stroke-linecap:round;stroke-linejoin:round;stroke-miterlimit:4;stroke-dasharray:none;stroke-opacity:1"
           d="m 1197.462,123.43362 -91.6071,52.85714 -5.5404,2.98759 c -1.1412,-1.28218 -3.3889,-7.20775 -16.1399,-14.04599 l -79.2252,-40.41013 c -9.48277,-4.6272 -16.0993,-5.04231 -19.60898,-5.04231 l -0.13557,-5.02869 -0.0631,-91.150497 c 12.08675,-0.982143 21.18015,0.69518 35.46365,7.293089 L 1165.896,98.08371 c 21.5755,10.1221 26.9369,16.54542 31.566,25.34991 z"
           id="path4175" />
      </g>
      <g
         id="g4210"
         style="opacity:1;stroke:#ffffff;stroke-width:8;stroke-miterlimit:4;stroke-dasharray:none;stroke-opacity:1"
         transform="matrix(0.18268042,0,0,0.18268042,201.873,452.34845)">
        <path
           id="path4167"
           d="M 900.81794,331.72204 896.35255,194.68741 1016.7107,131.0152"
           style="opacity:1;fill:none;fill-opacity:1;stroke:#ffffff;stroke-width:8;stroke-linecap:round;stroke-linejoin:round;stroke-miterlimit:4;stroke-dasharray:none;stroke-opacity:1" />
        <path
           id="path4169"
           d="m 868.91369,276.51695 116.05871,71.76374 115.9725,-71.93486"
           style="opacity:1;fill:none;fill-opacity:1;stroke:#ffffff;stroke-width:8;stroke-linecap:round;stroke-linejoin:round;stroke-miterlimit:4;stroke-dasharray:none;stroke-opacity:1" />
        <path
           id="path4179"
           d="M 952.13589,364.23902 950.10917,225.56934 1070.7974,158.62793"
           style="opacity:1;fill:none;fill-opacity:1;stroke:#ffffff;stroke-width:8;stroke-linecap:round;stroke-linejoin:round;stroke-miterlimit:4;stroke-dasharray:none;stroke-opacity:1" />
        <path
           id="path4181"
           d="m 1018.0022,364.44725 1.7829,-138.92394 -120.36,-67.01039"
           style="opacity:1;fill:none;fill-opacity:1;stroke:#ffffff;stroke-width:8;stroke-linecap:round;stroke-linejoin:round;stroke-miterlimit:4;stroke-dasharray:none;stroke-opacity:1" />
        <path
           id="path4185"
           d="m 1069.2738,331.74019 4.4443,-136.9863 -120.56293,-63.84895"
           style="opacity:1;fill:none;fill-opacity:1;stroke:#ffffff;stroke-width:8;stroke-linecap:round;stroke-linejoin:round;stroke-miterlimit:4;stroke-dasharray:none;stroke-opacity:1" />
        <path
           id="path4189"
           d="m 866.20536,215.51398 118.85121,70.23179 118.65993,-70.04432"
           style="opacity:1;fill:none;fill-opacity:1;stroke:#ffffff;stroke-width:8;stroke-linecap:round;stroke-linejoin:round;stroke-miterlimit:4;stroke-dasharray:none;stroke-opacity:1" />
      </g>
    </g>
  </g>
</svg>
